<?xml version="1.0" encoding="UTF-8" standalone="no"?>
<svg
   version="1.1"
   width="676.23376"
   height="79.950111"
   viewBox="0 0 676.23376 79.950112"
   id="svg51"
   sodipodi:docname="logo-color.svg"
   inkscape:export-filename="logo.svg"
   inkscape:export-xdpi="34.265648"
   inkscape:export-ydpi="34.265648"
   xmlns:inkscape="http://www.inkscape.org/namespaces/inkscape"
   xmlns:sodipodi="http://sodipodi.sourceforge.net/DTD/sodipodi-0.dtd"
   xmlns="http://www.w3.org/2000/svg"
   xmlns:svg="http://www.w3.org/2000/svg">
  <defs
     id="defs55" />
  <sodipodi:namedview
     id="namedview53"
     pagecolor="#ffffff"
     bordercolor="#666666"
     borderopacity="1.0"
     inkscape:showpageshadow="2"
     inkscape:pageopacity="0.0"
     inkscape:pagecheckerboard="0"
     inkscape:deskcolor="#d1d1d1"
     showgrid="false" />
  <g
     id="g1693"
     transform="matrix(0.68963064,0,0,0.68963064,-173.40996,12.713006)">
    <path
       fill="#3d9970"
       d="m 417.4826,82.669736 q -2.64747,0 -4.4033,-1.8107 -1.75582,-1.8107 -1.75582,-4.45816 V -5.3275244 q 0,-2.77092 1.75582,-4.52675 1.75583,-1.7421096 4.4033,-1.7421096 2.89437,0 4.82853,2.2908096 L 474.94487,60.708146 V -5.3275244 q 0,-2.77092 1.8107,-4.52675 1.8107,-1.7421096 4.47188,-1.7421096 2.77092,0 4.45816,1.7421096 1.68725,1.75583 1.68725,4.52675 V 76.400876 q 0,2.64746 -1.68725,4.45816 -1.68724,1.8107 -4.45816,1.8107 -1.20713,0 -2.60631,-0.53498 -1.38546,-0.5487 -2.22222,-1.63237 l -52.63374,-70.01372 v 65.91221 q 0,2.64746 -1.75583,4.45816 -1.74212,1.8107 -4.52675,1.8107"
       id="path5"
       style="stroke-width:1.37174" />
    <rect
       width="76.049377"
       height="94.266121"
       x="412.01346"
       y="-10.913277"
       fill="none"
       rx="0"
       ry="0"
       id="rect7"
       style="stroke-width:1.37174" />
    <path
       fill="#3d9970"
       d="m 506.20688,82.669736 q -3.37449,0 -5.18519,-2.89438 -1.8107,-2.89437 -0.37037,-6.15912 L 534.5745,-7.3714144 q 1.8107,-4.2249696 5.91221,-4.2249696 4.34842,0 5.92593,4.2249696 l 34.03292,81.2345604 q 1.33059,3.37449 -0.42524,6.09054 -1.74211,2.71605 -5.24006,2.71605 -1.8107,0 -3.44307,-1.01509 -1.63237,-1.02881 -2.3594,-2.83951 L 539.04638,4.4529956 h 3.37449 L 512.00935,78.815136 q -0.85048,1.93416 -2.48286,2.89438 -1.63237,0.96022 -3.31961,0.96022 m 6.40603,-20.75446 4.82853,-10.38409 h 47.31139 l 4.82853,10.38409 z"
       id="path9"
       style="stroke-width:1.37174" />
    <rect
       width="81.783264"
       height="94.266121"
       x="500.2988"
       y="-10.913277"
       fill="none"
       rx="0"
       ry="0"
       id="rect11"
       style="stroke-width:1.37174" />
    <path
       fill="#3d9970"
       d="m 611.47436,82.669736 q -2.66117,0 -4.47187,-1.8107 -1.8107,-1.8107 -1.8107,-4.45816 v -87.99726 h 12.55144 v 87.99726 q 0,2.64746 -1.8107,4.45816 -1.8107,1.8107 -4.45817,1.8107 M 579.11497,-0.01887437 q -2.52401,0 -4.15638,-1.61866003 -1.63237,-1.63237 -1.63237,-4.1701 0,-2.53772 1.63237,-4.17009 1.63237,-1.6186596 4.15638,-1.6186596 h 64.58162 q 2.53772,0 4.17009,1.6186596 1.63238,1.63237 1.63238,4.17009 0,2.53773 -1.63238,4.1701 -1.63237,1.61866003 -4.17009,1.61866003 z"
       id="path13"
       style="stroke-width:1.37174" />
    <rect
       width="76.172836"
       height="94.266121"
       x="574.0025"
       y="-10.913277"
       fill="none"
       rx="0"
       ry="0"
       id="rect15"
       style="stroke-width:1.37174" />
    <path
       fill="#3d9970"
       d="m 701.28232,84.603896 q -11.59122,0 -20.52126,-4.27984 -8.93004,-4.29355 -13.9369,-11.893 -5.02058,-7.59946 -5.02058,-17.37998 V -5.3275244 q 0,-2.77092 1.8107,-4.52675 1.8107,-1.7421096 4.47188,-1.7421096 2.77092,0 4.52675,1.7421096 1.75583,1.75583 1.75583,4.52675 V 51.051076 q 0,6.51578 3.42936,11.52264 3.44307,5.00686 9.54732,7.84636 6.09054,2.83951 13.9369,2.83951 7.59945,0 13.45679,-2.83951 5.85734,-2.8395 9.17695,-7.84636 3.31962,-5.00686 3.31962,-11.52264 V -5.3275244 q 0,-2.77092 1.8107,-4.52675 1.8107,-1.7421096 4.47188,-1.7421096 2.77092,0 4.45816,1.7421096 1.68724,1.75583 1.68724,4.52675 V 51.051076 q 0,9.78052 -4.8834,17.37998 -4.8834,7.59945 -13.58024,11.893 -8.69685,4.27984 -19.9177,4.27984"
       id="path17"
       style="stroke-width:1.37174" />
    <rect
       width="77.860077"
       height="96.200272"
       x="662.49353"
       y="-10.899544"
       fill="none"
       rx="0"
       ry="0"
       id="rect19"
       style="stroke-width:1.37174" />
    <path
       fill="#3d9970"
       d="m 768.52512,82.669736 q -2.66118,0 -4.47188,-1.8107 -1.8107,-1.8107 -1.8107,-4.45816 V -5.3275244 q 0,-2.77092 1.8107,-4.52675 1.8107,-1.7421096 4.47188,-1.7421096 h 21.72839 q 9.0535,0 16.04939,3.7997296 6.99588,3.79972 10.91906,10.43895 3.92318,6.63924 3.92318,15.4458204 0,8.21674 -3.92318,14.60905 -3.92318,6.40604 -10.91906,10.02744 -6.99589,3.6214 -16.04939,3.6214 h -15.45953 v 30.05487 q 0,2.64746 -1.74211,4.45816 -1.75583,1.8107 -4.52675,1.8107 m 50.09602,0 q -1.70096,0 -3.08642,-0.71331 -1.38546,-0.72702 -2.34568,-2.30452 l -21.72839,-35.00686 12.18107,-3.49794 19.80795,31.86556 q 2.16735,3.51166 0.60357,6.58437 -1.57751,3.0727 -5.4321,3.0727 m -43.82716,-47.91495 h 15.45953 q 5.54184,0 9.76681,-2.11249 4.22496,-2.11248 6.63923,-5.9122 2.41426,-3.81345 2.41426,-8.64198 0,-5.30864 -2.41426,-9.4101504 -2.41427,-4.10151 -6.63923,-6.39232 -4.22497,-2.30451997 -9.76681,-2.30451997 h -15.45953 z"
       id="path21"
       style="stroke-width:1.37174" />
    <rect
       width="62.92181"
       height="94.266121"
       x="762.9325"
       y="-10.913277"
       fill="none"
       rx="0"
       ry="0"
       id="rect23"
       style="stroke-width:1.37174" />
    <path
       fill="#3d9970"
       d="m 843.24391,82.669736 q -2.66118,0 -4.47188,-1.8107 -1.8107,-1.8107 -1.8107,-4.45816 V -5.3275244 q 0,-2.77092 1.8107,-4.52675 1.8107,-1.7421096 4.47188,-1.7421096 h 54.55418 q 2.78464,0 4.47188,1.6186596 1.68725,1.63237 1.68725,4.29355 0,2.53772 -1.68725,4.10151 -1.68724,1.56379003 -4.47188,1.56379003 H 849.51277 V 29.322686 h 34.65021 q 2.77092,0 4.47188,1.63237 1.68724,1.61866 1.68724,4.15638 0,2.53772 -1.68724,4.1701 -1.70096,1.63237 -4.47188,1.63237 h -34.65021 v 30.17833 h 48.28532 q 2.78464,0 4.47188,1.56378 1.68725,1.56379 1.68725,4.10151 0,2.66118 -1.68725,4.29355 -1.68724,1.61866 -4.47188,1.61866 z"
       id="path25"
       style="stroke-width:1.37174" />
    <rect
       width="66.995888"
       height="94.266121"
       x="837.65131"
       y="-10.913277"
       fill="none"
       rx="0"
       ry="0"
       id="rect27"
       style="stroke-width:1.37174" />
    <path
       fill="#3d9970"
       d="m 962.26997,83.876866 q -9.65706,0 -18.17558,-3.79972 -8.5048,-3.79973 -15.02058,-10.49383 -6.52949,-6.70782 -10.26063,-15.45953 -3.74485,-8.75172 -3.74485,-18.64198 0,-9.78052 3.6214,-18.53223 3.62139,-8.7517204 10.0823,-15.4595404 6.44719,-6.6941 15.02058,-10.49383 8.57338,-3.7997196 18.47736,-3.7997196 8.32648,0 15.80247,2.64746 7.48971,2.6611796 14.00549,8.0932796 1.08372,0.83676 1.08372,2.34568003 0,1.50890997 -0.9603,2.66117997 -0.96018,1.15226 -2.66114,1.15226 -0.48011,0 -0.96022,-0.19204 -0.48011,-0.17833 -0.96022,-0.48011 -0.49383,-0.30179 -1.0974,-0.7819 -4.82853,-4.34842 -10.97393,-6.28257 -6.15913,-1.92044 -13.27847,-1.92044 -8.09328,0 -15.33607,3.31961 -7.2428,3.31962 -12.79836,9.0535 -5.55555,5.7338804 -8.68313,13.0864204 -3.14129,7.36626 -3.14129,15.58299 0,8.44993 3.14129,15.92593 3.12758,7.48971 8.62826,13.155 5.48697,5.67902 12.72977,8.87517 7.2428,3.19616 15.45953,3.19616 7.11934,0 13.33334,-2.16735 6.21399,-2.16735 11.64609,-6.63923 0.97393,-0.85048 2.29081,-0.60357 1.33058,0.24692 2.30452,1.20714 0.96022,0.96022 0.96022,2.53772 0,0.72702 -0.1235,1.33059 -0.1234,0.60357 -0.72698,1.20713 -5.91221,5.91221 -13.68998,8.14815 -7.7915,2.22222 -15.99452,2.22222"
       id="path29"
       style="stroke-width:1.37174" />
    <rect
       width="78.093277"
       height="96.680389"
       x="915.7583"
       y="-12.120369"
       fill="none"
       rx="0"
       ry="0"
       id="rect31"
       style="stroke-width:1.37174" />
    <path
       fill="#3d9970"
       d="m 1004.7528,82.669736 q -2.2908,0 -3.1962,-1.8107 -0.9053,-1.8107 -0.055,-3.37449 l 36.5707,-86.5569204 q 0.9602,-2.5240096 3.4979,-2.5240096 2.4143,0 3.498,2.5240096 l 36.7078,86.5569204 q 0.9602,1.68725 -0.1235,3.44308 -1.0836,1.74211 -3.1413,1.74211 -1.2071,0 -1.989,-0.53498 -0.7819,-0.5487 -1.3854,-1.75583 l -35.5007,-84.6227704 h 3.8683 l -35.3635,84.6227704 q -0.4938,1.20713 -1.3306,1.75583 -0.8505,0.53498 -2.0576,0.53498 m 8.93,-23.64883 2.9081,-6.5295 h 50.2058 l 2.7846,6.5295 z"
       id="path33"
       style="stroke-width:1.37174" />
    <rect
       width="81.604942"
       height="94.266121"
       x="1001.5471"
       y="-10.913277"
       fill="none"
       rx="0"
       ry="0"
       id="rect35"
       style="stroke-width:1.37174" />
    <path
       fill="#3d9970"
       d="m 1097.8255,82.669736 q -1.5638,0 -2.5926,-1.01509 -1.0288,-1.02881 -1.0288,-2.60631 V -7.9749844 q 0,-1.70096 1.0288,-2.6611796 1.0288,-0.96022 2.5926,-0.96022 h 23.059 q 8.8065,0 15.6241,3.6762696 6.8313,3.67627 10.6859,10.08231 3.8683,6.39231 3.8683,14.8422404 0,8.21674 -3.8683,14.60906 -3.8546,6.39232 -10.6859,10.01372 -6.8176,3.62139 -15.6241,3.62139 h -19.4376 v 33.79973 q 0,1.5775 -0.9602,2.60631 -0.974,1.01509 -2.6612,1.01509 m 50.6996,0 q -1.3306,0 -1.9891,-0.53498 -0.6721,-0.5487 -1.2757,-1.38546 l -24.0192,-38.39506 7.4897,-1.68724 22.8121,36.4609 q 1.5638,2.41427 0.6584,3.97805 -0.9053,1.56379 -3.6762,1.56379 m -47.0782,-44.66392 h 19.4376 q 6.7626,0 11.893,-2.71605 5.1303,-2.71605 8.0795,-7.42113 2.963,-4.70507 2.963,-10.8642 0,-6.26886 -2.963,-11.0973904 -2.9492,-4.82853 -8.0795,-7.54458 -5.1304,-2.71605 -11.893,-2.71605 h -19.4376 z"
       id="path37"
       style="stroke-width:1.37174" />
    <rect
       width="58.61454"
       height="94.266121"
       x="1094.8942"
       y="-10.913277"
       fill="none"
       rx="0"
       ry="0"
       id="rect39"
       style="stroke-width:1.37174" />
    <path
       fill="#3d9970"
       d="m 1169.6499,82.669736 q -1.5638,0 -2.5926,-1.01509 -1.0288,-1.02881 -1.0288,-2.60631 V -7.9749844 q 0,-1.5775 1.0288,-2.6063096 1.0288,-1.01509 2.5926,-1.01509 h 58.0658 q 1.4404,0 2.5378,1.01509 1.0836,1.0288096 1.0836,2.6063096 0,1.44033 -1.0836,2.52401 -1.0974,1.09739 -2.5378,1.09739 h -54.4444 V 31.860406 h 39.9588 q 1.5638,0 2.5926,1.01509 1.0288,1.02881 1.0288,2.60631 0,1.56379 -1.0288,2.64746 -1.0288,1.08368 -2.5926,1.08368 h -39.9588 v 36.21399 h 54.4444 q 1.4404,0 2.5378,1.09739 1.0836,1.08368 1.0836,2.52401 0,1.5775 -1.0836,2.60631 -1.0974,1.01509 -2.5378,1.01509 z"
       id="path41"
       style="stroke-width:1.37174" />
    <rect
       width="65.30864"
       height="94.266121"
       x="1166.7186"
       y="-10.913277"
       fill="none"
       rx="0"
       ry="0"
       id="rect43"
       style="stroke-width:1.37174" />
    <path
       fill="#3d9970"
       d="m 301.3221,92.103206 c -6.80795,0 -13.32921,-1.4513 -19.37997,-4.3155 a 40.422496,40.422496 0 0 1 -2.65158,-1.38546 c -5.05624,-1.99589 -13.47599,-10.99177 -15.786,-16.25103 -2.43896,-5.55281 -4.73389,-11.67901 -5,-18.82442 -0.44856,-12.08093 3.10013,-23.65157 10.54732,-34.38408 2.97257,-4.28944 6.107,-7.7928704 9.58436,-10.7078204 4.06585,-3.41015 9.02058,-6.11385997 15.14678,-8.26475 a 86.477365,86.477365 0 0 1 17.20165,-4.09053 c 4.61179,-0.61729 9.28669,-1.11935 13.80932,-1.60631 1.6653,-0.1797 3.32922,-0.3594 4.99314,-0.54459 11.7092,-1.30315 21.64198,-3.8806496 30.36763,-7.8820296 0.47188,-0.21262 0.8642,-0.31275 1.05076,-0.36076 l 6.73799,-1.92044 -0.60356,6.9657 c -0.0576,0.60906 -0.10837,1.20988 -0.15775,1.8079596 a 105.54184,105.54184 0 0 1 -0.39781,4.0631 c -0.16186,1.31687 -0.32236,2.63237 -0.48011,3.95062 -0.51715,4.27297 -1.05075,8.69273 -1.71605,13.0576104 -2.60082,17.05075 -5.71193,29.88889 -10.0823,41.62414 -2,5.36351 -4.24554,10.03155 -6.86832,14.27572 -3.2181,5.20576 -7.64609,9.69822 -13.93415,14.14541 -7.45542,5.2716 -15.60357,8.63237 -24.22085,9.99039 a 52.787379,52.787379 0 0 1 -8.1605,0.65707 m -18.68998,-14.69685 0.42935,0.096 0.63786,0.369 c 0.86283,0.50068 1.62963,0.90809 2.34294,1.24417 4.82853,2.28257 9.82579,3.39369 15.28121,3.39369 a 43.001371,43.001371 0 0 0 6.66666,-0.54047 c 7.14678,-1.12483 13.93279,-3.93416 20.17421,-8.34568 5.19891,-3.67764 8.79561,-7.28395 11.31276,-11.35802 2.28944,-3.69959 4.26338,-7.81482 6.03841,-12.57888 4.13306,-11.09602 7.09191,-23.34568 9.58848,-39.7215404 0.64472,-4.21673 1.17009,-8.56241 1.67764,-12.76268 l 0.20713,-1.72017 c -7.82304,2.79973 -16.44719,4.70233003 -26.13992,5.78189 -1.67489,0.18656 -3.34979,0.36763 -5.02469,0.54733 -4.4609,0.48011 -9.07544,0.97805 -13.5679,1.5775 a 76.849108,76.849108 0 0 0 -15.29355,3.63238 c -5.08779,1.786 -8.95199,3.8710504 -12.1605,6.5637804 -2.81344,2.3594 -5.38683,5.24417 -7.86556,8.82305 -6.32648,9.11797 -9.21811,18.46227 -8.84363,28.56241 0.19205,5.23045 1.81893,9.90809 4.19753,15.32236 1.75446,4 8.2771,10.02881 10.34294,11.11385"
       id="path45"
       style="stroke-width:1.37174" />
    <path
       fill="#3d9970"
       fill-rule="evenodd"
       d="m 269.25352,70.362466 c 0.0905,0.16735 0.20576,0.31961 0.22085,0.34019 1.86145,-2.1262 3.61865,-4.31413 5.56516,-6.31687 3.80246,-3.91221 8.06035,-7.31276 12.42524,-10.57339 10.12894,-7.56104 20.83676,-14.22771 31.78875,-20.51577 0.81207,-0.46502 1.63374,-0.9177 2.4513,-1.37861 l 0.17147,0.19479 c -18.16598,12.33745 -33.99177,26.94376 -47.87517,43.44582 m -0.71742,2.20164 c -5.74349,6.18245 -11.54321,15.89164 -11.54321,15.89164 -1.53224,2.56515 -4.32099,4.25926 -6.19342,3.7572 -1.87243,-0.50343 -5.35117,-3.80933 -3.62826,-6.25515 0,0 8.79013,-12.47736 15.38546,-20.3155"
       id="path47"
       style="stroke-width:1.37174" />
  </g>
</svg>
